PathFileType	4	(X/Y/Z)	C:/Users/opensim2020/Desktop/walking_exp_matlab/subject01_walking04_straight_02.trc																																																																																																																															
DataRate	CameraRate	NumFrames	NumMarkers	Units	OrigDataRate	OrigDataStartFrame	OrigNumFrames																																																																																																																											
100	100	4	43	mm	100	1646	261																																																																																																																											
Frame#	Time	LFHD			RFHD			LBHD			RBHD			C7			T10			CLAV			STRN			RBAK			LSHO			LUPA			LELB			LFRM			LWRA			LWRB			LFIN			RSHO			RUPA			RELB			RFRM			RWRA			RWRB			RFIN			LASI			RASI			LPSI			RPSI			LTHI			LKNE			LTIB			LANK			LHEE			LTOE			RTHI			RKNE			RTIB			RANK			RHEE			RTOE			*39			*40			*41			*42		
		X1	Y1	Z1	X2	Y2	Z2	X3	Y3	Z3	X4	Y4	Z4	X5	Y5	Z5	X6	Y6	Z6	X7	Y7	Z7	X8	Y8	Z8	X9	Y9	Z9	X10	Y10	Z10	X11	Y11	Z11	X12	Y12	Z12	X13	Y13	Z13	X14	Y14	Z14	X15	Y15	Z15	X16	Y16	Z16	X17	Y17	Z17	X18	Y18	Z18	X19	Y19	Z19	X20	Y20	Z20	X21	Y21	Z21	X22	Y22	Z22	X23	Y23	Z23	X24	Y24	Z24	X25	Y25	Z25	X26	Y26	Z26	X27	Y27	Z27	X28	Y28	Z28	X29	Y29	Z29	X30	Y30	Z30	X31	Y31	Z31	X32	Y32	Z32	X33	Y33	Z33	X34	Y34	Z34	X35	Y35	Z35	X36	Y36	Z36	X37	Y37	Z37	X38	Y38	Z38	X39	Y39	Z39	X40	Y40	Z40	X41	Y41	Z41	X42	Y42	Z42	X43	Y43	Z43
																																																																																																																																		
229	2.28	517.29169	1646.14026	-1518.24683	533.25775	1645.30127	-1404.24475	395.83771	1615.7467	-1510.0321	409.09772	1614.83923	-1389.00757	338.3324	1415.82068	-1473.75122	306.0434	1120.30042	-1461.34302	482.30273	1346.97217	-1473.56897	527.12128	1194.26367	-1483.14502	286.89474	1217.36511	-1396.72205	421.25903	1378.80847	-1634.36963	418.91156	1197.29553	-1726.37341	445.59979	1045.91553	-1739.62402	546.68762	987.26788	-1762.7876	682.74744	960.39398	-1745.45081	645.82056	917.51642	-1765.87219	727.37769	900.16028	-1778.95117	419.69525	1372.7605	-1320.60547	340.01431	1178.6886	-1224.8927	323.83878	1057.24683	-1221.84912	325.87894	938.52405	-1187.97034	379.79346	806.64978	-1199.68384	335.59915	818.13177	-1163.93713	355.46411	733.70618	-1163.17114	475.32959	916.69019	-1584.4895	500.39792	917.08258	-1368.41833	295.7326	929.961	-1507.01538	314.52151	925.83002	-1363.73706	371.17905	591.83325	-1622.70239	327.3342	461.22256	-1602.40063	215.72763	305.37384	-1602.10828	116.71349	109.43011	-1538.6449	65.72015	100.52166	-1485.37048	244.59758	30.99569	-1534.1261	520.69287	589.32782	-1311.26343	577.23547	447.20184	-1349.04333	583.51501	272.36923	-1347.245	639.00171	71.58693	-1399.2179	607.26141	25.32241	-1452.97949	784.90704	75.1716	-1399.36182	524.46161	1681.0354	-1425.78162	-1973.15869	1023.35223	3101.93799	-2012.5769	1022.01563	3140.54517	NaN	NaN	NaN
230	2.29	526.9024	1645.41833	-1516.35571	543.00684	1644.52112	-1402.28821	405.51129	1614.71558	-1508.01892	418.98883	1613.73169	-1386.73962	348.40784	1414.66528	-1471.92981	317.55179	1118.73853	-1460.4115	492.81213	1346.03308	-1471.76917	538.28052	1193.71582	-1481.81628	297.91299	1215.49927	-1395.59131	431.56641	1378.22363	-1632.56628	428.17935	1196.72937	-1724.82581	454.21509	1045.229	-1738.26587	555.76642	987.20691	-1761.37866	692.0705	961.6178	-1744.11194	655.52118	918.32825	-1764.46814	737.38849	901.90881	-1777.53076	429.87268	1371.38196	-1318.79346	349.94473	1177.09167	-1223.87708	333.73074	1055.69836	-1221.10864	335.32715	937.02258	-1187.36121	388.83099	804.95654	-1198.99695	344.52829	816.52142	-1163.3866	363.99442	731.99622	-1162.74634	487.43585	915.66992	-1584.06201	512.64844	916.24622	-1367.8374	307.70383	929.09729	-1506.43347	326.54108	924.54742	-1363.04773	382.29977	590.74231	-1622.74463	337.89197	460.3461	-1602.8446	223.1358	306.63232	-1602.96667	119.4781	112.69077	-1540.24683	68.18861	105.45932	-1487.22913	245.0451	31.04087	-1534.3822	533.42834	588.39838	-1312.28796	588.9234	445.73679	-1349.73828	591.93115	270.56216	-1348.94995	643.43536	70.54119	-1401.09814	608.01477	25.52734	-1454.37646	788.49738	66.43285	-1401.72583	534.11066	1680.20422	-1423.82129	-1973.19617	1023.29358	3101.94141	-2012.59924	1022.03241	3140.69238	NaN	NaN	NaN
231	2.3	536.64783	1645.10767	-1514.35828	552.81561	1644.14905	-1400.25464	415.31143	1613.95764	-1505.90063	428.76477	1612.82727	-1384.9325	358.37869	1413.62195	-1469.83655	329.13763	1117.40063	-1459.34937	503.40872	1345.37109	-1469.90405	549.42023	1193.49768	-1480.43652	308.97766	1213.82031	-1394.46313	441.90836	1377.81995	-1630.69324	437.47464	1196.24792	-1723.26501	462.68039	1044.50793	-1736.80334	564.62952	987.08112	-1759.97144	701.03741	962.41473	-1742.76428	664.86499	918.80115	-1763.05627	746.92273	903.11249	-1776.12512	440.36447	1370.07556	-1316.6958	359.9805	1175.46606	-1222.85706	343.82883	1054.14197	-1220.18628	345.04416	935.41705	-1186.62512	398.18625	803.22864	-1198.31982	353.72324	814.95715	-1162.91919	372.95981	730.36902	-1162.31226	499.69962	914.68536	-1583.55188	524.10248	915.23499	-1367.67615	319.67917	928.37134	-1505.95593	338.5972	923.43866	-1362.13489	393.82086	589.59827	-1622.70947	349.08154	459.21387	-1603.01013	231.2599	307.95987	-1603.72351	122.58125	116.56053	-1542.37878	71.09882	110.969	-1489.51001	245.72284	31.12052	-1534.61389	545.84851	588.32648	-1313.23853	600.92175	444.8299	-1350.14783	600.68121	270.44894	-1350.96533	646.59918	70.35377	-1402.31396	609.09857	26.70744	-1455.1073	791.83179	58.28926	-1402.54993	543.70422	1679.66357	-1421.7052	-1973.20508	1023.44598	3101.89526	-2012.52576	1021.97522	3140.65771	NaN	NaN	NaN
232	2.31	546.50238	1645.51367	-1512.16882	562.71216	1644.24426	-1397.97839	425.29288	1613.90796	-1503.74231	438.76755	1612.51721	-1382.76282	368.57849	1413.24939	-1467.7821	340.83179	1116.71912	-1458.39124	513.85468	1345.22095	-1468.05066	560.33258	1193.71204	-1478.9397	320.02551	1212.71106	-1393.48425	452.15375	1377.67432	-1628.95044	446.85593	1195.83716	-1721.58911	471.07867	1043.87744	-1735.25623	573.22913	986.77094	-1758.50781	709.71643	962.80304	-1741.35486	673.87628	918.99219	-1761.60022	756.01672	903.87939	-1774.703	450.57147	1369.0769	-1314.63513	370.29169	1174.00146	-1221.73022	354.11508	1052.67017	-1219.37573	354.91238	933.89777	-1185.91357	407.8172	801.53894	-1197.64343	363.48856	813.28198	-1162.35083	382.27789	728.79987	-1161.80811	511.91904	913.83069	-1582.95264	536.1145	914.8844	-1367.07263	331.63986	927.745	-1505.55481	350.6517	922.61157	-1361.25305	405.93018	588.56256	-1622.44641	360.87128	458.26932	-1603.09375	240.11487	309.51031	-1604.479	126.36024	120.79998	-1544.63281	74.63709	117.19992	-1492.14343	245.97169	31.04624	-1535.00537	558.21545	589.42432	-1313.84778	613.5473	445.7988	-1351.00293	609.89136	270.85825	-1351.6709	650.76447	70.79005	-1402.1416	610.82062	28.09211	-1454.83643	794.99506	51.9601	-1402.78882	553.32343	1679.62048	-1419.40613	-1973.03699	1023.76086	3101.91846	-2012.53271	1021.89484	3140.61499	NaN	NaN	NaN
